<svg width="15" height="14" viewBox="0 0 15 14" fill="none" xmlns="http://www.w3.org/2000/svg">
<path fill-rule="evenodd" clip-rule="evenodd" d="M2.93283 5.41759C1.98238 5.41759 1.24917 5.18677 0.733208 4.72512C0.244403 4.23631 0 3.55742 0 2.68843C0 1.81944 0.244403 1.15412 0.733208 0.692473C1.24917 0.230824 1.98238 0 2.93283 0C3.85613 0 4.56218 0.230824 5.05099 0.692473C5.56695 1.15412 5.82493 1.81944 5.82493 2.68843C5.82493 3.55742 5.56695 4.23631 5.05099 4.72512C4.56218 5.18677 3.85613 5.41759 2.93283 5.41759ZM2.93283 14C1.98238 14 1.24917 13.7692 0.733208 13.3076C0.244403 12.8187 0 12.1399 0 11.2709C0 10.4019 0.244403 9.73656 0.733208 9.27491C1.24917 8.81326 1.98238 8.58243 2.93283 8.58243C3.85613 8.58243 4.56218 8.81326 5.05099 9.27491C5.56695 9.73656 5.82493 10.4019 5.82493 11.2709C5.82493 12.1399 5.56695 12.8187 5.05099 13.3076C4.56218 13.7692 3.85613 14 2.93283 14ZM9.54381 4.72512C10.0598 5.18677 10.793 5.41759 11.7434 5.41759C12.6667 5.41759 13.3728 5.18677 13.8616 4.72512C14.3775 4.23631 14.6355 3.55742 14.6355 2.68843C14.6355 1.81944 14.3775 1.15412 13.8616 0.692473C13.3728 0.230824 12.6667 0 11.7434 0C10.793 0 10.0598 0.230824 9.54381 0.692473C9.055 1.15412 8.8106 1.81944 8.8106 2.68843C8.8106 3.55742 9.055 4.23631 9.54381 4.72512ZM11.7434 14C10.793 14 10.0598 13.7692 9.54381 13.3076C9.055 12.8187 8.8106 12.1399 8.8106 11.2709C8.8106 10.4019 9.055 9.73656 9.54381 9.27491C10.0598 8.81326 10.793 8.58243 11.7434 8.58243C12.6667 8.58243 13.3728 8.81326 13.8616 9.27491C14.3775 9.73656 14.6355 10.4019 14.6355 11.2709C14.6355 12.1399 14.3775 12.8187 13.8616 13.3076C13.3728 13.7692 12.6667 14 11.7434 14Z" fill="#D6D0DF"/>
</svg>
